<?xml version="1.0" standalone="no"?>
<!DOCTYPE svg PUBLIC "-//W3C//DTD SVG 20010904//EN"
 "http://www.w3.org/TR/2001/REC-SVG-20010904/DTD/svg10.dtd">
<svg version="1.0" xmlns="http://www.w3.org/2000/svg"
 width="128.000000pt" height="128.000000pt" viewBox="0 0 128.000000 128.000000"
 preserveAspectRatio="xMidYMid meet">
<metadata>
Created by potrace 1.11, written by Peter Selinger 2001-2013
</metadata>
<g transform="translate(0.000000,128.000000) scale(0.100000,-0.100000)"
fill="#000000" stroke="none">
<path d="M741 1218 c-22 -6 -59 -34 -98 -74 -50 -51 -75 -88 -122 -186 -33
-67 -59 -124 -57 -126 2 -1 61 26 132 62 71 36 170 78 219 95 l90 30 -3 33
c-2 18 -13 55 -23 83 -28 74 -74 101 -138 83z"/>
<path d="M360 1162 c-47 -17 -65 -74 -56 -179 5 -62 40 -220 51 -231 10 -10
73 49 80 75 5 21 67 154 123 264 1 3 -23 20 -55 37 -59 31 -116 44 -143 34z"/>
<path d="M892 980 c-210 -44 -498 -207 -645 -364 -107 -116 -151 -229 -107
-281 115 -139 607 34 884 310 147 147 183 265 97 321 -30 21 -160 28 -229 14z"/>
<path d="M203 896 c-82 -26 -126 -76 -116 -135 4 -28 53 -95 93 -128 l26 -22
63 59 62 59 -22 78 c-12 43 -23 84 -25 91 -4 15 -27 14 -81 -2z"/>
<path d="M1041 624 c-36 -35 -68 -64 -72 -64 -5 0 -1 -19 7 -42 9 -24 18 -52
20 -63 3 -11 7 -27 9 -35 2 -8 4 -21 4 -28 1 -8 8 -11 19 -8 9 3 28 7 42 10
51 8 111 39 136 69 40 47 27 99 -42 173 -55 58 -53 58 -123 -12z"/>
<path d="M886 492 c-32 -24 -54 -50 -62 -74 -16 -48 -41 -99 -81 -170 l-32
-58 42 -24 c101 -59 157 -70 199 -36 41 32 51 99 34 234 -8 61 -36 166 -45
166 -3 0 -28 -17 -55 -38z"/>
<path d="M731 399 c-75 -42 -248 -114 -296 -124 -22 -5 -43 -9 -47 -10 -5 -2
-12 -3 -17 -4 -12 -1 15 -116 36 -152 20 -34 67 -59 101 -53 35 7 104 56 138
100 16 20 34 42 39 48 26 28 120 226 107 226 -4 0 -31 -14 -61 -31z"/>
</g>
</svg>
